<svg xmlns="http://www.w3.org/2000/svg" viewBox="0 0 1180 360">
  <defs>
    <linearGradient id="wlTeal" x1="0" y1="0" x2="0" y2="1">
      <stop offset="0" stop-color="#2AC4D8"></stop><stop offset="1" stop-color="#12889C"></stop>
    </linearGradient>
    <linearGradient id="wlLit" x1="0" y1="0" x2="0" y2="1">
      <stop offset="0" stop-color="#34D58C"></stop><stop offset="1" stop-color="#1B9E62"></stop>
    </linearGradient>
    <linearGradient id="wlCap" x1="0" y1="0" x2="0" y2="1">
      <stop offset="0" stop-color="#FFFFFF" stop-opacity="0.4"></stop><stop offset="0.55" stop-color="#FFFFFF" stop-opacity="0"></stop>
    </linearGradient>
    <linearGradient id="wlShaft" x1="0" y1="0" x2="0" y2="1">
      <stop offset="0" stop-color="#1B9E62" stop-opacity="0"></stop><stop offset="1" stop-color="#34D58C" stop-opacity="0.5"></stop>
    </linearGradient>
  </defs>

  <rect x="168" y="62" width="24" height="62" rx="12" fill="url(#wlShaft)"></rect>
  <g>
    <rect x="62" y="175" width="28" height="80" rx="14" fill="url(#wlTeal)"></rect>
    <rect x="114" y="145" width="28" height="110" rx="14" fill="url(#wlTeal)"></rect>
    <rect x="218" y="145" width="28" height="110" rx="14" fill="url(#wlTeal)"></rect>
    <rect x="270" y="175" width="28" height="80" rx="14" fill="url(#wlTeal)"></rect>
    <rect x="166" y="115" width="28" height="140" rx="14" fill="url(#wlLit)"></rect>
  </g>
  <g>
    <rect x="62" y="175" width="28" height="80" rx="14" fill="url(#wlCap)"></rect>
    <rect x="114" y="145" width="28" height="110" rx="14" fill="url(#wlCap)"></rect>
    <rect x="218" y="145" width="28" height="110" rx="14" fill="url(#wlCap)"></rect>
    <rect x="270" y="175" width="28" height="80" rx="14" fill="url(#wlCap)"></rect>
    <rect x="166" y="115" width="28" height="140" rx="14" fill="url(#wlCap)"></rect>
  </g>

  <text x="372" y="245" font-family="&#39;Avenir Next&#39;,&#39;Helvetica Neue&#39;,Arial,sans-serif" font-size="172" font-weight="600" letter-spacing="-2" fill="#0E1116">pocket</text>
</svg>